<svg width="72" height="72" viewBox="0 0 72 72" fill="none" xmlns="http://www.w3.org/2000/svg">
<path fill-rule="evenodd" clip-rule="evenodd" d="M49.3156 23.0589V19.3316C49.3132 17.4925 47.823 16.0023 45.984 16H19.3316C17.4925 16.0023 16.0023 17.4925 16 19.3316V33.9904C16.0052 35.692 17.295 37.1151 18.9877 37.2876L21.4924 43.7893C22.1541 45.5061 24.082 46.3613 25.7989 45.7005L41.4398 39.6754C40.359 42.4984 40.6665 45.6652 42.2697 48.2276L42.6525 48.8398V55.3124C42.6525 55.6805 42.9506 55.9787 43.3188 55.9787H55.3124C55.6805 55.9787 55.9787 55.6805 55.9787 55.3124V33.3183C55.9724 31.014 55.055 28.8062 53.4259 27.1765L49.3156 23.0589ZM49.3156 27.0438L51.3378 32.2933C51.7341 33.3238 51.2206 34.48 50.1903 34.8766L49.0344 35.323C49.2189 34.9029 49.3146 34.4488 49.3156 33.9904V27.0438ZM17.3326 19.3316V33.9904C17.3326 35.0941 18.2278 35.9893 19.3316 35.9893H39.3056L36.7036 33.1474C35.4231 31.7198 35.5063 29.5343 36.8909 28.2072C38.2751 26.8809 40.4623 26.8912 41.8342 28.2315L47.9376 34.3356C47.9626 34.2219 47.9778 34.1067 47.9829 33.9904V23.5818L47.9771 23.5666H47.9829V19.3316C47.9829 18.2278 47.0878 17.3326 45.984 17.3326H19.3316C18.2278 17.3326 17.3326 18.2278 17.3326 19.3316ZM25.8687 37.322L21.1306 39.1462L20.4296 37.322H25.8687ZM22.7357 43.3101C23.1327 44.3402 24.2896 44.8538 25.3197 44.4567L41.393 38.2621L40.5269 37.318H29.5654V37.322L21.6117 40.387L22.7357 43.3101ZM43.9851 54.6461V49.3156H54.6461V54.6461H43.9851ZM43.6886 47.9829H54.6461V33.3183C54.6407 31.3678 53.863 29.4991 52.4837 28.1202L50.3252 25.9572L52.5805 31.8134C53.2405 33.5298 52.3856 35.4561 50.6702 36.1179L49.9865 36.3845L52.4519 38.8498L51.5097 39.792L40.8919 29.1766C40.037 28.3251 38.6586 28.3114 37.7865 29.1463C36.9148 29.981 36.869 31.3588 37.6833 32.25L43.1435 38.2068C43.3394 38.4204 43.3747 38.7362 43.2308 38.9877C41.7103 41.6457 41.7749 44.9249 43.3996 47.5212L43.6886 47.9829Z" fill="black"/>
<circle cx="36" cy="36" r="36" fill="url(#paint0_linear_22657_26)"/>
<path fill-rule="evenodd" clip-rule="evenodd" d="M49.3156 23.0589V19.3316C49.3132 17.4925 47.823 16.0023 45.984 16H19.3316C17.4925 16.0023 16.0023 17.4925 16 19.3316V33.9904C16.0052 35.692 17.295 37.1151 18.9877 37.2876L21.4924 43.7893C22.1541 45.5061 24.082 46.3613 25.7989 45.7005L41.4398 39.6754C40.359 42.4984 40.6665 45.6652 42.2697 48.2276L42.6525 48.8398V55.3124C42.6525 55.6805 42.9506 55.9787 43.3188 55.9787H55.3124C55.6805 55.9787 55.9787 55.6805 55.9787 55.3124V33.3183C55.9724 31.014 55.055 28.8062 53.4259 27.1765L49.3156 23.0589ZM49.3156 27.0438L51.3378 32.2933C51.7341 33.3238 51.2206 34.48 50.1903 34.8766L49.0344 35.323C49.2189 34.9029 49.3146 34.4488 49.3156 33.9904V27.0438ZM17.3326 19.3316V33.9904C17.3326 35.0941 18.2278 35.9893 19.3316 35.9893H39.3056L36.7036 33.1474C35.4231 31.7198 35.5063 29.5343 36.8909 28.2072C38.2751 26.8809 40.4623 26.8912 41.8342 28.2315L47.9376 34.3356C47.9626 34.2219 47.9778 34.1067 47.9829 33.9904V23.5818L47.9771 23.5666H47.9829V19.3316C47.9829 18.2278 47.0878 17.3326 45.984 17.3326H19.3316C18.2278 17.3326 17.3326 18.2278 17.3326 19.3316ZM25.8687 37.322L21.1306 39.1462L20.4296 37.322H25.8687ZM22.7357 43.3101C23.1327 44.3402 24.2896 44.8538 25.3197 44.4567L41.393 38.2621L40.5269 37.318H29.5654V37.322L21.6117 40.387L22.7357 43.3101ZM43.9851 54.6461V49.3156H54.6461V54.6461H43.9851ZM43.6886 47.9829H54.6461V33.3183C54.6407 31.3678 53.863 29.4991 52.4837 28.1202L50.3252 25.9572L52.5805 31.8134C53.2405 33.5298 52.3856 35.4561 50.6702 36.1179L49.9865 36.3845L52.4519 38.8498L51.5097 39.792L40.8919 29.1766C40.037 28.3251 38.6586 28.3114 37.7865 29.1463C36.9148 29.981 36.869 31.3588 37.6833 32.25L43.1435 38.2068C43.3394 38.4204 43.3747 38.7362 43.2308 38.9877C41.7103 41.6457 41.7749 44.9249 43.3996 47.5212L43.6886 47.9829Z" fill="black"/>
<defs>
<linearGradient id="paint0_linear_22657_26" x1="-35.8489" y1="35.8489" x2="35.8489" y2="107.547" gradientUnits="userSpaceOnUse">
<stop stop-color="#33D35E"/>
<stop offset="1" stop-color="#2AB6D9"/>
</linearGradient>
</defs>
</svg>
